<?xml version="1.0" encoding="UTF-8"?>
<!DOCTYPE svg PUBLIC "-//W3C//DTD SVG 1.1//EN" "http://www.w3.org/Graphics/SVG/1.1/DTD/svg11.dtd">
<svg xmlns="http://www.w3.org/2000/svg" version="1.1" width="144px" height="246px" style="shape-rendering:geometricPrecision; text-rendering:geometricPrecision; image-rendering:optimizeQuality; fill-rule:evenodd; clip-rule:evenodd" xmlns:xlink="http://www.w3.org/1999/xlink">
<g><path style="opacity:1" fill="#fefefe" d="M -0.5,-0.5 C 47.5,-0.5 95.5,-0.5 143.5,-0.5C 143.5,81.5 143.5,163.5 143.5,245.5C 95.5,245.5 47.5,245.5 -0.5,245.5C -0.5,163.5 -0.5,81.5 -0.5,-0.5 Z"/></g>
<g><path style="opacity:1" fill="#0f0f11" d="M 91.5,57.5 C 91.5,62.1667 91.5,66.8333 91.5,71.5C 87.6035,76.7818 82.2702,79.4485 75.5,79.5C 74.3052,79.6775 73.1385,80.0109 72,80.5C 70.9701,80.1639 70.4701,79.4972 70.5,78.5C 70.5,78.1667 70.5,77.8333 70.5,77.5C 72.1942,78.686 73.8608,78.5193 75.5,77C 74.5342,73.5649 74.5342,70.0649 75.5,66.5C 76.552,66.3505 77.552,66.5172 78.5,67C 76.6263,74.9594 77.793,75.4594 82,68.5C 82.5497,65.7366 83.3831,63.0699 84.5,60.5C 84.1909,57.5083 82.5242,56.175 79.5,56.5C 79.8174,59.5719 79.4841,62.5719 78.5,65.5C 77.8333,61.8333 77.1667,58.1667 76.5,54.5C 75.3044,54.8457 75.3044,55.3457 76.5,56C 75.2068,56.49 73.8734,56.6567 72.5,56.5C 72.6767,61.8053 71.5101,66.8053 69,71.5C 68.7489,69.567 68.2489,67.7337 67.5,66C 68.9836,62.4725 69.9836,58.8058 70.5,55C 68.9562,55.4866 67.2895,55.9866 65.5,56.5C 65.2436,58.7925 65.5769,60.9592 66.5,63C 65.552,63.4828 64.552,63.6495 63.5,63.5C 61.344,67.8603 60.0106,72.5269 59.5,77.5C 60.325,78.3857 61.325,78.719 62.5,78.5C 62.5,79.5 62.5,80.5 62.5,81.5C 62.5,81.8333 62.5,82.1667 62.5,82.5C 62.1667,82.5 61.8333,82.5 61.5,82.5C 58.5505,80.9444 55.8838,81.2777 53.5,83.5C 53.8627,84.1835 54.1961,84.8501 54.5,85.5C 53.7784,85.9175 53.2784,86.5842 53,87.5C 51.4056,84.4019 49.239,81.7352 46.5,79.5C 45.7803,73.8623 45.447,68.1956 45.5,62.5C 42.5264,63.7846 39.5264,65.1179 36.5,66.5C 36.5,63.8333 36.5,61.1667 36.5,58.5C 46.5098,52.2528 57.5098,49.9195 69.5,51.5C 75.1667,51.6667 80.8333,51.8333 86.5,52C 89.6518,52.4637 91.3185,54.297 91.5,57.5 Z"/></g>
<g><path style="opacity:1" fill="#0c2745" d="M 36.5,58.5 C 36.5,61.1667 36.5,63.8333 36.5,66.5C 34.8583,64.9192 32.8583,64.2525 30.5,64.5C 32.1667,62.1667 34.1667,60.1667 36.5,58.5 Z"/></g>
<g><path style="opacity:1" fill="#4d5156" d="M 46.5,79.5 C 45.5176,77.5939 44.5176,75.5939 43.5,73.5C 42.8165,73.8627 42.1499,74.1961 41.5,74.5C 41.3433,73.1266 41.51,71.7932 42,70.5C 43.6665,71.3402 43.8331,70.8402 42.5,69C 40.5394,69.5107 39.5394,71.0107 39.5,73.5C 39.1667,73.5 38.8333,73.5 38.5,73.5C 38.6602,71.8008 38.4935,70.1341 38,68.5C 34.2684,72.0622 30.7684,75.7288 27.5,79.5C 29.4975,74.9885 32.4975,71.1551 36.5,68C 33.8018,67.185 31.4685,67.685 29.5,69.5C 29.7148,67.8212 29.0481,66.8212 27.5,66.5C 27.9731,65.0937 28.9731,64.427 30.5,64.5C 32.8583,64.2525 34.8583,64.9192 36.5,66.5C 39.5264,65.1179 42.5264,63.7846 45.5,62.5C 45.447,68.1956 45.7803,73.8623 46.5,79.5 Z"/></g>
<g><path style="opacity:1" fill="#222225" d="M 70.5,77.5 C 67.6146,77.1936 64.9479,77.5269 62.5,78.5C 61.325,78.719 60.325,78.3857 59.5,77.5C 60.0106,72.5269 61.344,67.8603 63.5,63.5C 64.552,63.6495 65.552,63.4828 66.5,63C 65.5769,60.9592 65.2436,58.7925 65.5,56.5C 67.2895,55.9866 68.9562,55.4866 70.5,55C 69.9836,58.8058 68.9836,62.4725 67.5,66C 68.2489,67.7337 68.7489,69.567 69,71.5C 71.5101,66.8053 72.6767,61.8053 72.5,56.5C 73.8734,56.6567 75.2068,56.49 76.5,56C 75.3044,55.3457 75.3044,54.8457 76.5,54.5C 77.1667,58.1667 77.8333,61.8333 78.5,65.5C 79.4841,62.5719 79.8174,59.5719 79.5,56.5C 82.5242,56.175 84.1909,57.5083 84.5,60.5C 83.3831,63.0699 82.5497,65.7366 82,68.5C 77.793,75.4594 76.6263,74.9594 78.5,67C 77.552,66.5172 76.552,66.3505 75.5,66.5C 74.5342,70.0649 74.5342,73.5649 75.5,77C 73.8608,78.5193 72.1942,78.686 70.5,77.5 Z"/></g>
<g><path style="opacity:1" fill="#0a3869" d="M 91.5,57.5 C 94.8333,59.8333 98.1667,62.1667 101.5,64.5C 101.884,68.4885 101.217,72.1552 99.5,75.5C 97.1432,75.6633 94.8098,75.4966 92.5,75C 91.6634,73.9887 91.33,72.8221 91.5,71.5C 91.5,66.8333 91.5,62.1667 91.5,57.5 Z"/></g>
<g><path style="opacity:1" fill="#19426d" d="M 102.5,66.5 C 104.841,68.6563 106.841,71.1563 108.5,74C 107.328,74.3534 106.162,74.1868 105,73.5C 103.69,74.1301 102.856,75.1301 102.5,76.5C 102.167,76.5 101.833,76.5 101.5,76.5C 102.207,73.2139 102.54,69.8806 102.5,66.5 Z"/></g>
<g><path style="opacity:1" fill="#b5b2ab" d="M 41.5,74.5 C 40.8333,74.1667 40.1667,73.8333 39.5,73.5C 39.5394,71.0107 40.5394,69.5107 42.5,69C 43.8331,70.8402 43.6665,71.3402 42,70.5C 41.51,71.7932 41.3433,73.1266 41.5,74.5 Z"/></g>
<g><path style="opacity:1" fill="#7a8994" d="M 102.5,59.5 C 102.5,61.8333 102.5,64.1667 102.5,66.5C 102.54,69.8806 102.207,73.2139 101.5,76.5C 100.833,76.8333 100.167,77.1667 99.5,77.5C 99.5,76.8333 99.5,76.1667 99.5,75.5C 101.217,72.1552 101.884,68.4885 101.5,64.5C 101.216,62.5853 101.549,60.9187 102.5,59.5 Z"/></g>
<g><path style="opacity:1" fill="#11141a" d="M 27.5,79.5 C 20.2169,78.6584 19.5503,75.8251 25.5,71C 26.9007,70.5899 28.234,70.0899 29.5,69.5C 31.4685,67.685 33.8018,67.185 36.5,68C 32.4975,71.1551 29.4975,74.9885 27.5,79.5 Z"/></g>
<g><path style="opacity:1" fill="#22374f" d="M 27.5,66.5 C 29.0481,66.8212 29.7148,67.8212 29.5,69.5C 28.234,70.0899 26.9007,70.5899 25.5,71C 19.5503,75.8251 20.2169,78.6584 27.5,79.5C 30.7684,75.7288 34.2684,72.0622 38,68.5C 38.4935,70.1341 38.6602,71.8008 38.5,73.5C 38.5494,76.0991 39.5494,78.2658 41.5,80C 39.8753,80.8525 39.5419,81.8525 40.5,83C 34.7677,83.7277 29.1011,84.5611 23.5,85.5C 23.7251,81.9438 22.8918,81.6105 21,84.5C 18.9011,85.2865 16.7345,85.6199 14.5,85.5C 14.1667,85.5 13.8333,85.5 13.5,85.5C 16.9582,78.2389 21.6249,71.9056 27.5,66.5 Z"/></g>
<g><path style="opacity:1" fill="#082a4f" d="M 91.5,71.5 C 91.33,72.8221 91.6634,73.9887 92.5,75C 94.8098,75.4966 97.1432,75.6633 99.5,75.5C 99.5,76.1667 99.5,76.8333 99.5,77.5C 97.3771,78.7832 95.3771,80.2832 93.5,82C 88.8024,82.3511 84.1358,82.8511 79.5,83.5C 78.1667,82.1667 76.8333,80.8333 75.5,79.5C 82.2702,79.4485 87.6035,76.7818 91.5,71.5 Z"/></g>
<g><path style="opacity:1" fill="#3f3521" d="M 70.5,77.5 C 70.5,77.8333 70.5,78.1667 70.5,78.5C 69.9779,80.2191 68.9779,81.5525 67.5,82.5C 66.791,81.596 65.791,81.2627 64.5,81.5C 64.6495,80.448 64.4828,79.448 64,78.5C 63.7679,79.7375 63.2679,80.7375 62.5,81.5C 62.5,80.5 62.5,79.5 62.5,78.5C 64.9479,77.5269 67.6146,77.1936 70.5,77.5 Z"/></g>
<g><path style="opacity:1" fill="#86837b" d="M 120.5,77.5 C 121.404,78.209 121.737,79.209 121.5,80.5C 119.521,82.1675 117.188,82.8342 114.5,82.5C 114.351,81.448 114.517,80.448 115,79.5C 116.666,80.3402 116.833,79.8402 115.5,78C 117.367,77.2888 118.867,77.7888 120,79.5C 120.464,78.9056 120.631,78.2389 120.5,77.5 Z"/></g>
<g><path style="opacity:1" fill="#a9964d" d="M 67.5,82.5 C 65.8333,82.5 64.1667,82.5 62.5,82.5C 62.5,82.1667 62.5,81.8333 62.5,81.5C 63.2679,80.7375 63.7679,79.7375 64,78.5C 64.4828,79.448 64.6495,80.448 64.5,81.5C 65.791,81.2627 66.791,81.596 67.5,82.5 Z"/></g>
<g><path style="opacity:1" fill="#4e6375" d="M 99.5,77.5 C 98.7457,80.091 97.079,81.9243 94.5,83C 89.504,83.6107 84.504,84.1107 79.5,84.5C 79.5,84.1667 79.5,83.8333 79.5,83.5C 84.1358,82.8511 88.8024,82.3511 93.5,82C 95.3771,80.2832 97.3771,78.7832 99.5,77.5 Z"/></g>
<g><path style="opacity:1" fill="#1a1d23" d="M 38.5,73.5 C 38.8333,73.5 39.1667,73.5 39.5,73.5C 40.1667,73.8333 40.8333,74.1667 41.5,74.5C 42.1499,74.1961 42.8165,73.8627 43.5,73.5C 44.5176,75.5939 45.5176,77.5939 46.5,79.5C 49.239,81.7352 51.4056,84.4019 53,87.5C 53.2784,86.5842 53.7784,85.9175 54.5,85.5C 56.3407,85.8433 57.8407,85.8433 59,85.5C 59.1667,85.8333 59.3333,86.1667 59.5,86.5C 58.2713,87.2811 56.938,87.7811 55.5,88C 54.9781,88.5613 54.6448,89.228 54.5,90C 56.1886,91.8629 57.5219,94.0296 58.5,96.5C 59.4168,97.1272 60.4168,97.4606 61.5,97.5C 61.8333,97.5 62.1667,97.5 62.5,97.5C 64.3857,100.099 67.0524,101.099 70.5,100.5C 71.2389,100.369 71.9056,100.536 72.5,101C 70.1667,101.333 67.8333,101.667 65.5,102C 64.2617,102.69 64.2617,103.19 65.5,103.5C 64.7659,104.708 64.4326,106.041 64.5,107.5C 63.2003,106.892 61.8669,106.225 60.5,105.5C 58.5466,106.156 56.5466,106.489 54.5,106.5C 54.8195,101.637 54.4861,96.97 53.5,92.5C 50.4156,92.2709 47.0822,92.2709 43.5,92.5C 41.6693,91.9478 40.0026,91.9478 38.5,92.5C 37.8319,94.9688 37.1653,97.3021 36.5,99.5C 36.5,97.5 36.5,95.5 36.5,93.5C 34.1667,93.5 31.8333,93.5 29.5,93.5C 29.2267,91.549 29.8934,90.049 31.5,89C 29.5,88.3333 27.5,88.3333 25.5,89C 26.3802,90.3561 26.7135,91.8561 26.5,93.5C 24.1667,93.5 21.8333,93.5 19.5,93.5C 19.8769,91.742 20.5435,90.0754 21.5,88.5C 20.624,87.7492 19.624,87.2492 18.5,87C 20.2475,86.6481 21.9142,86.1481 23.5,85.5C 29.1011,84.5611 34.7677,83.7277 40.5,83C 39.5419,81.8525 39.8753,80.8525 41.5,80C 39.5494,78.2658 38.5494,76.0991 38.5,73.5 Z"/></g>
<g><path style="opacity:1" fill="#d7d8d3" d="M 70.5,78.5 C 70.4701,79.4972 70.9701,80.1639 72,80.5C 73.1385,80.0109 74.3052,79.6775 75.5,79.5C 76.8333,80.8333 78.1667,82.1667 79.5,83.5C 79.5,83.8333 79.5,84.1667 79.5,84.5C 78.2424,87.6939 77.5758,91.0272 77.5,94.5C 77.6716,95.4916 77.3382,96.1583 76.5,96.5C 75.1667,96.5 73.8333,96.5 72.5,96.5C 69.1933,97.0508 65.8599,97.3841 62.5,97.5C 62.1667,97.5 61.8333,97.5 61.5,97.5C 61.5,92.5 61.5,87.5 61.5,82.5C 61.8333,82.5 62.1667,82.5 62.5,82.5C 64.1667,82.5 65.8333,82.5 67.5,82.5C 68.9779,81.5525 69.9779,80.2191 70.5,78.5 Z"/></g>
<g><path style="opacity:1" fill="#1a2a3b" d="M 101.5,76.5 C 101.833,76.5 102.167,76.5 102.5,76.5C 102.414,77.4959 102.748,78.3292 103.5,79C 109.808,78.9831 110.141,80.3164 104.5,83C 105.252,83.6708 105.586,84.5041 105.5,85.5C 104.833,85.5 104.5,85.8333 104.5,86.5C 101.391,86.2641 98.3915,86.5975 95.5,87.5C 95.1667,87.5 94.8333,87.5 94.5,87.5C 92.5,87.5 90.5,87.5 88.5,87.5C 86.742,87.1231 85.0754,86.4565 83.5,85.5C 81.2165,88.427 79.2165,91.427 77.5,94.5C 77.5758,91.0272 78.2424,87.6939 79.5,84.5C 84.504,84.1107 89.504,83.6107 94.5,83C 97.079,81.9243 98.7457,80.091 99.5,77.5C 100.167,77.1667 100.833,76.8333 101.5,76.5 Z"/></g>
<g><path style="opacity:1" fill="#0c0e13" d="M 23.5,85.5 C 21.9142,86.1481 20.2475,86.6481 18.5,87C 19.624,87.2492 20.624,87.7492 21.5,88.5C 20.5435,90.0754 19.8769,91.742 19.5,93.5C 17.8714,95.8577 16.7048,98.5243 16,101.5C 15.8247,96.9805 15.3247,92.6472 14.5,88.5C 14.5,87.5 14.5,86.5 14.5,85.5C 16.7345,85.6199 18.9011,85.2865 21,84.5C 22.8918,81.6105 23.7251,81.9438 23.5,85.5 Z"/></g>
<g><path style="opacity:1" fill="#706d65" d="M 29.5,93.5 C 28.791,94.404 27.791,94.7373 26.5,94.5C 26.5,94.1667 26.5,93.8333 26.5,93.5C 26.7135,91.8561 26.3802,90.3561 25.5,89C 27.5,88.3333 29.5,88.3333 31.5,89C 29.8934,90.049 29.2267,91.549 29.5,93.5 Z"/></g>
<g><path style="opacity:1" fill="#737e50" d="M 104.5,86.5 C 106.344,87.2039 106.844,88.5372 106,90.5C 105.701,87.2018 104.867,86.8685 103.5,89.5C 100.794,89.5751 98.1272,89.9084 95.5,90.5C 95.5,89.5 95.5,88.5 95.5,87.5C 98.3915,86.5975 101.391,86.2641 104.5,86.5 Z"/></g>
<g><path style="opacity:1" fill="#7d7d79" d="M 61.5,82.5 C 61.5,87.5 61.5,92.5 61.5,97.5C 60.4168,97.4606 59.4168,97.1272 58.5,96.5C 57.5219,94.0296 56.1886,91.8629 54.5,90C 54.6448,89.228 54.9781,88.5613 55.5,88C 56.938,87.7811 58.2713,87.2811 59.5,86.5C 59.3333,86.1667 59.1667,85.8333 59,85.5C 57.8407,85.8433 56.3407,85.8433 54.5,85.5C 54.1961,84.8501 53.8627,84.1835 53.5,83.5C 55.8838,81.2777 58.5505,80.9444 61.5,82.5 Z"/></g>
<g><path style="opacity:1" fill="#131415" d="M 118.5,89.5 C 120.5,90.1667 122.5,90.8333 124.5,91.5C 123.282,92.1614 121.949,92.8281 120.5,93.5C 122.991,94.5407 122.991,95.3741 120.5,96C 125.833,97 125.833,98 120.5,99C 121.793,99.49 123.127,99.6567 124.5,99.5C 124.771,101.38 124.104,102.713 122.5,103.5C 121.71,104.609 121.21,105.942 121,107.5C 119.471,106.271 118.304,104.771 117.5,103C 118.167,102.667 118.833,102.333 119.5,102C 118.196,101.196 117.529,100.029 117.5,98.5C 117.493,95.4595 117.826,92.4595 118.5,89.5 Z"/></g>
<g><path style="opacity:1" fill="#414854" d="M 14.5,88.5 C 15.3247,92.6472 15.8247,96.9805 16,101.5C 16.7048,98.5243 17.8714,95.8577 19.5,93.5C 19.5,94.5 19.5,95.5 19.5,96.5C 17.6339,100.766 15.9673,105.099 14.5,109.5C 14.3739,107.8 13.7073,106.3 12.5,105C 14.3409,99.6896 15.0075,94.1896 14.5,88.5 Z"/></g>
<g><path style="opacity:1" fill="#0f1721" d="M 88.5,87.5 C 89.0906,88.1515 89.7573,88.8182 90.5,89.5C 87.9062,91.7615 87.9062,93.9281 90.5,96C 88.8934,97.049 88.2267,98.549 88.5,100.5C 83.5,100.5 78.5,100.5 73.5,100.5C 73.5,99.5 73.5,98.5 73.5,97.5C 74.791,97.7373 75.791,97.404 76.5,96.5C 77.3382,96.1583 77.6716,95.4916 77.5,94.5C 79.2165,91.427 81.2165,88.427 83.5,85.5C 85.0754,86.4565 86.742,87.1231 88.5,87.5 Z"/></g>
<g><path style="opacity:1" fill="#0d2644" d="M 13.5,85.5 C 13.8333,85.5 14.1667,85.5 14.5,85.5C 14.5,86.5 14.5,87.5 14.5,88.5C 15.0075,94.1896 14.3409,99.6896 12.5,105C 13.7073,106.3 14.3739,107.8 14.5,109.5C 14.5,110.167 14.5,110.833 14.5,111.5C 13.0047,111.415 12.0047,112.081 11.5,113.5C 12.3202,115.111 13.6536,115.778 15.5,115.5C 14.8901,120.317 15.2235,122.317 16.5,121.5C 17.1239,121.917 17.4573,122.584 17.5,123.5C 17.3567,126.406 16.3567,128.739 14.5,130.5C 14.6716,129.508 14.3382,128.842 13.5,128.5C 13.5,124.5 13.5,120.5 13.5,116.5C 11.1667,116.5 8.83333,116.5 6.5,116.5C 6.13152,113.467 6.79818,110.8 8.5,108.5C 9.74975,108.423 10.5831,107.756 11,106.5C 11.3108,104.444 11.8108,102.444 12.5,100.5C 12.3764,99.8933 12.0431,99.56 11.5,99.5C 11.0679,98.2905 10.4013,97.2905 9.5,96.5C 10.0439,92.534 11.3772,88.8674 13.5,85.5 Z"/></g>
<g><path style="opacity:1" fill="#455a4a" d="M 104.5,86.5 C 104.5,85.8333 104.833,85.5 105.5,85.5C 105.833,85.5 106.167,85.5 106.5,85.5C 107.5,85.5 108.5,85.5 109.5,85.5C 109.263,89.722 109.596,93.8886 110.5,98C 110.101,99.7275 109.434,101.228 108.5,102.5C 107.943,100.765 107.61,99.0982 107.5,97.5C 107.773,95.549 107.107,94.049 105.5,93C 105.833,92.6667 106.167,92.3333 106.5,92C 104.881,91.7645 103.881,90.9311 103.5,89.5C 104.867,86.8685 105.701,87.2018 106,90.5C 106.844,88.5372 106.344,87.2039 104.5,86.5 Z"/></g>
<g><path style="opacity:1" fill="#444647" d="M 124.5,91.5 C 127.85,91.335 131.183,91.5017 134.5,92C 136.037,93.1096 136.703,94.6096 136.5,96.5C 133.5,96.5 130.5,96.5 127.5,96.5C 127.762,95.0222 127.429,93.6888 126.5,92.5C 125.833,99.6553 125.167,106.655 124.5,113.5C 123.5,112.833 122.5,112.167 121.5,111.5C 122.33,110.006 123.33,108.34 124.5,106.5C 124.058,105.261 123.391,104.261 122.5,103.5C 124.104,102.713 124.771,101.38 124.5,99.5C 123.127,99.6567 121.793,99.49 120.5,99C 125.833,98 125.833,97 120.5,96C 122.991,95.3741 122.991,94.5407 120.5,93.5C 121.949,92.8281 123.282,92.1614 124.5,91.5 Z"/></g>
<g><path style="opacity:1" fill="#445c48" d="M 88.5,87.5 C 90.5,87.5 92.5,87.5 94.5,87.5C 94.5,89.1667 94.5,90.8333 94.5,92.5C 93.325,92.281 92.325,92.6143 91.5,93.5C 92.2483,95.4159 92.2483,97.4159 91.5,99.5C 92.8333,99.5 94.1667,99.5 95.5,99.5C 99.2887,100.596 99.2887,101.263 95.5,101.5C 93.3926,100.532 91.0593,100.198 88.5,100.5C 88.2267,98.549 88.8934,97.049 90.5,96C 87.9062,93.9281 87.9062,91.7615 90.5,89.5C 89.7573,88.8182 89.0906,88.1515 88.5,87.5 Z"/></g>
<g><path style="opacity:1" fill="#407c58" d="M 94.5,87.5 C 94.8333,87.5 95.1667,87.5 95.5,87.5C 95.5,88.5 95.5,89.5 95.5,90.5C 98.1272,89.9084 100.794,89.5751 103.5,89.5C 103.881,90.9311 104.881,91.7645 106.5,92C 106.167,92.3333 105.833,92.6667 105.5,93C 107.107,94.049 107.773,95.549 107.5,97.5C 106.85,97.8039 106.183,98.1373 105.5,98.5C 104.832,100.969 104.165,103.302 103.5,105.5C 99.1617,105.378 98.8284,105.045 102.5,104.5C 102.23,101.004 101.896,97.5039 101.5,94C 100.175,94.1484 99.0084,93.9817 98,93.5C 97.5339,95.352 96.7006,97.352 95.5,99.5C 94.1667,99.5 92.8333,99.5 91.5,99.5C 92.2483,97.4159 92.2483,95.4159 91.5,93.5C 92.325,92.6143 93.325,92.281 94.5,92.5C 94.5,90.8333 94.5,89.1667 94.5,87.5 Z"/></g>
<g><path style="opacity:1" fill="#7b9584" d="M 103.5,105.5 C 103.715,107.179 103.048,108.179 101.5,108.5C 100.222,108.218 99.2223,107.551 98.5,106.5C 98.1667,106.5 97.8333,106.5 97.5,106.5C 96.5,106.5 95.5,106.5 94.5,106.5C 94.6287,104.784 94.962,103.117 95.5,101.5C 99.2887,101.263 99.2887,100.596 95.5,99.5C 96.7006,97.352 97.5339,95.352 98,93.5C 99.0084,93.9817 100.175,94.1484 101.5,94C 101.896,97.5039 102.23,101.004 102.5,104.5C 98.8284,105.045 99.1617,105.378 103.5,105.5 Z"/></g>
<g><path style="opacity:1" fill="#666e76" d="M 72.5,96.5 C 72.4729,98.1993 71.8062,99.5326 70.5,100.5C 67.0524,101.099 64.3857,100.099 62.5,97.5C 65.8599,97.3841 69.1933,97.0508 72.5,96.5 Z"/></g>
<g><path style="opacity:1" fill="#394250" d="M 72.5,96.5 C 73.8333,96.5 75.1667,96.5 76.5,96.5C 75.791,97.404 74.791,97.7373 73.5,97.5C 73.5,98.5 73.5,99.5 73.5,100.5C 78.5,100.5 83.5,100.5 88.5,100.5C 91.0593,100.198 93.3926,100.532 95.5,101.5C 94.962,103.117 94.6287,104.784 94.5,106.5C 95.5,106.5 96.5,106.5 97.5,106.5C 96.0813,107.451 94.4147,107.784 92.5,107.5C 92.5,105.5 92.5,103.5 92.5,101.5C 85.3974,101.567 78.3974,102.4 71.5,104C 73.1341,104.494 74.8008,104.66 76.5,104.5C 75.791,105.404 74.791,105.737 73.5,105.5C 73.1676,117.851 73.501,130.185 74.5,142.5C 75.5063,142.062 75.5063,141.396 74.5,140.5C 77.7746,139.556 81.108,138.889 84.5,138.5C 86.0666,138.477 87.3999,138.977 88.5,140C 85.2473,141.036 81.914,141.703 78.5,142C 79.7932,142.49 81.1266,142.657 82.5,142.5C 82.5,142.833 82.5,143.167 82.5,143.5C 79.1667,143.5 75.8333,143.5 72.5,143.5C 72.8286,130.989 72.4952,118.655 71.5,106.5C 68.8625,103.779 67.1959,104.446 66.5,108.5C 65.9829,106.81 65.6495,105.143 65.5,103.5C 64.2617,103.19 64.2617,102.69 65.5,102C 67.8333,101.667 70.1667,101.333 72.5,101C 71.9056,100.536 71.2389,100.369 70.5,100.5C 71.8062,99.5326 72.4729,98.1993 72.5,96.5 Z"/></g>
<g><path style="opacity:1" fill="#0b203e" d="M 19.5,93.5 C 21.8333,93.5 24.1667,93.5 26.5,93.5C 26.5,93.8333 26.5,94.1667 26.5,94.5C 24.5,94.5 22.5,94.5 20.5,94.5C 20.9756,102.826 21.309,111.16 21.5,119.5C 20.0279,112.049 19.3612,104.382 19.5,96.5C 19.5,95.5 19.5,94.5 19.5,93.5 Z"/></g>
<g><path style="opacity:1" fill="#8d9092" d="M 127.5,102.5 C 130.833,102.5 134.167,102.5 137.5,102.5C 137.5,103.833 137.5,105.167 137.5,106.5C 134.167,106.5 130.833,106.5 127.5,106.5C 127.5,105.5 127.5,104.5 127.5,103.5C 127.5,103.167 127.5,102.833 127.5,102.5 Z"/></g>
<g><path style="opacity:1" fill="#d2d1c6" d="M 11.5,99.5 C 12.0431,99.56 12.3764,99.8933 12.5,100.5C 11.8108,102.444 11.3108,104.444 11,106.5C 10.5831,107.756 9.74975,108.423 8.5,108.5C 7.95691,108.44 7.62358,108.107 7.5,107.5C 8.25043,104.335 9.58377,101.669 11.5,99.5 Z"/></g>
<g><path style="opacity:1" fill="#0b50b7" d="M 29.5,93.5 C 31.8333,93.5 34.1667,93.5 36.5,93.5C 36.5,95.5 36.5,97.5 36.5,99.5C 37.3515,117.819 37.6849,136.153 37.5,154.5C 37.1667,154.5 36.8333,154.5 36.5,154.5C 36.5991,147.468 36.4324,140.135 36,132.5C 34.7618,126.383 34.5951,120.049 35.5,113.5C 35.2069,108.448 34.5402,103.448 33.5,98.5C 33.6082,97.5581 33.9415,96.7247 34.5,96C 31.039,95.1263 28.039,95.9597 25.5,98.5C 27.3316,99.0568 28.6649,100.057 29.5,101.5C 28.5041,101.414 27.6708,101.748 27,102.5C 26.5001,120.497 26.3334,138.497 26.5,156.5C 24.6096,156.703 23.1096,156.037 22,154.5C 21.5001,142.838 21.3335,131.171 21.5,119.5C 21.309,111.16 20.9756,102.826 20.5,94.5C 22.5,94.5 24.5,94.5 26.5,94.5C 27.791,94.7373 28.791,94.404 29.5,93.5 Z"/></g>
<g><path style="opacity:1" fill="#13418d" d="M 53.5,92.5 C 54.4861,96.97 54.8195,101.637 54.5,106.5C 54.5,106.833 54.5,107.167 54.5,107.5C 54.5,109.5 54.5,111.5 54.5,113.5C 54.5,113.833 54.5,114.167 54.5,114.5C 53.8333,114.5 53.1667,114.5 52.5,114.5C 53.1726,107.343 53.5059,100.01 53.5,92.5 Z"/></g>
<g><path style="opacity:1" fill="#888476" d="M 71.5,106.5 C 71.5,107.167 71.5,107.833 71.5,108.5C 70.8333,108.833 70.1667,109.167 69.5,109.5C 68.209,109.737 67.209,109.404 66.5,108.5C 67.1959,104.446 68.8625,103.779 71.5,106.5 Z"/></g>
<g><path style="opacity:1" fill="#2f3235" d="M 102.5,59.5 C 110.167,63.8333 116.167,69.8333 120.5,77.5C 120.631,78.2389 120.464,78.9056 120,79.5C 118.867,77.7888 117.367,77.2888 115.5,78C 116.833,79.8402 116.666,80.3402 115,79.5C 114.517,80.448 114.351,81.448 114.5,82.5C 117.188,82.8342 119.521,82.1675 121.5,80.5C 121.336,83.8174 120.336,86.8174 118.5,89.5C 117.826,92.4595 117.493,95.4595 117.5,98.5C 117.529,100.029 118.196,101.196 119.5,102C 118.833,102.333 118.167,102.667 117.5,103C 118.304,104.771 119.471,106.271 121,107.5C 121.21,105.942 121.71,104.609 122.5,103.5C 123.391,104.261 124.058,105.261 124.5,106.5C 123.33,108.34 122.33,110.006 121.5,111.5C 119.539,110.54 117.873,109.207 116.5,107.5C 116.818,102.968 116.485,98.6344 115.5,94.5C 117.018,91.209 116.352,88.3757 113.5,86C 113.833,85.6667 114.167,85.3333 114.5,85C 111.633,84.1993 108.966,84.3659 106.5,85.5C 106.167,85.5 105.833,85.5 105.5,85.5C 105.586,84.5041 105.252,83.6708 104.5,83C 110.141,80.3164 109.808,78.9831 103.5,79C 102.748,78.3292 102.414,77.4959 102.5,76.5C 102.856,75.1301 103.69,74.1301 105,73.5C 106.162,74.1868 107.328,74.3534 108.5,74C 106.841,71.1563 104.841,68.6563 102.5,66.5C 102.5,64.1667 102.5,61.8333 102.5,59.5 Z"/></g>
<g><path style="opacity:1" fill="#bcb9b3" d="M 127.5,103.5 C 127.5,104.5 127.5,105.5 127.5,106.5C 130.833,106.5 134.167,106.5 137.5,106.5C 137.672,107.492 137.338,108.158 136.5,108.5C 133.017,108.691 129.684,109.357 126.5,110.5C 126.198,107.941 126.532,105.607 127.5,103.5 Z"/></g>
<g><path style="opacity:1" fill="#1469d3" d="M 53.5,92.5 C 53.5059,100.01 53.1726,107.343 52.5,114.5C 49.821,114.525 48.4877,115.858 48.5,118.5C 48.4497,124.389 49.1164,130.056 50.5,135.5C 51.287,137.104 52.6203,137.771 54.5,137.5C 54.5,142.5 54.5,147.5 54.5,152.5C 52.5786,153.363 50.5786,154.029 48.5,154.5C 47.6472,137.84 47.4806,121.173 48,104.5C 48.8525,102.875 49.8525,102.542 51,103.5C 51.1719,100.174 51.0053,96.8411 50.5,93.5C 48.1944,93.9926 45.861,94.3259 43.5,94.5C 43.5,95.8333 43.5,97.1667 43.5,98.5C 42.7109,98.2172 42.0442,97.7172 41.5,97C 42.5981,96.2303 42.5981,95.397 41.5,94.5C 42.1667,94.5 42.5,94.1667 42.5,93.5C 43.1667,93.5 43.5,93.1667 43.5,92.5C 47.0822,92.2709 50.4156,92.2709 53.5,92.5 Z"/></g>
<g><path style="opacity:1" fill="#4d4e4c" d="M 64.5,107.5 C 64.5,109.833 64.5,112.167 64.5,114.5C 61.4796,115.815 58.1462,115.815 54.5,114.5C 54.5,114.167 54.5,113.833 54.5,113.5C 55.8333,113.5 57.1667,113.5 58.5,113.5C 58.5,111.833 58.5,110.167 58.5,108.5C 57.0413,108.567 55.7079,108.234 54.5,107.5C 54.5,107.167 54.5,106.833 54.5,106.5C 56.5466,106.489 58.5466,106.156 60.5,105.5C 61.8669,106.225 63.2003,106.892 64.5,107.5 Z"/></g>
<g><path style="opacity:1" fill="#191a1c" d="M 54.5,107.5 C 55.7079,108.234 57.0413,108.567 58.5,108.5C 58.5,110.167 58.5,111.833 58.5,113.5C 57.1667,113.5 55.8333,113.5 54.5,113.5C 54.5,111.5 54.5,109.5 54.5,107.5 Z"/></g>
<g><path style="opacity:1" fill="#1476e3" d="M 36.5,154.5 C 35.7095,155.401 34.7095,156.068 33.5,156.5C 32.0698,154.845 31.2365,152.845 31,150.5C 30.1936,134.174 29.6936,117.841 29.5,101.5C 28.6649,100.057 27.3316,99.0568 25.5,98.5C 28.039,95.9597 31.039,95.1263 34.5,96C 33.9415,96.7247 33.6082,97.5581 33.5,98.5C 34.5402,103.448 35.2069,108.448 35.5,113.5C 34.5951,120.049 34.7618,126.383 36,132.5C 36.4324,140.135 36.5991,147.468 36.5,154.5 Z"/></g>
<g><path style="opacity:1" fill="#2f81dc" d="M 48.5,154.5 C 46.5853,154.784 44.9187,154.451 43.5,153.5C 44.4968,135.674 44.8301,117.674 44.5,99.5C 45.5573,98.794 45.2239,98.4607 43.5,98.5C 43.5,97.1667 43.5,95.8333 43.5,94.5C 45.861,94.3259 48.1944,93.9926 50.5,93.5C 51.0053,96.8411 51.1719,100.174 51,103.5C 49.8525,102.542 48.8525,102.875 48,104.5C 47.4806,121.173 47.6472,137.84 48.5,154.5 Z"/></g>
<g><path style="opacity:1" fill="#6d7470" d="M 115.5,94.5 C 116.485,98.6344 116.818,102.968 116.5,107.5C 115.884,115.939 116.551,124.106 118.5,132C 116.161,134.887 115.828,138.054 117.5,141.5C 116.307,141.97 115.64,142.97 115.5,144.5C 115.667,145.5 115.833,146.5 116,147.5C 121.953,152.694 121.786,157.694 115.5,162.5C 114.889,160.225 113.555,158.559 111.5,157.5C 112.5,155.833 113.833,154.5 115.5,153.5C 116.575,154.562 117.575,154.562 118.5,153.5C 116.78,150.798 115.113,148.132 113.5,145.5C 114.724,128.564 115.391,111.564 115.5,94.5 Z"/></g>
<g><path style="opacity:1" fill="#6e7b87" d="M 92.5,107.5 C 92.3335,119.171 92.5001,130.838 93,142.5C 92.4078,138.102 94.2411,136.102 98.5,136.5C 98.5,137.167 98.5,137.833 98.5,138.5C 97.8501,138.196 97.1835,137.863 96.5,137.5C 95.2319,139.304 94.5652,141.304 94.5,143.5C 92.549,143.227 91.049,143.893 90,145.5C 89.6174,144.944 89.1174,144.611 88.5,144.5C 86.7354,143.539 84.7354,143.205 82.5,143.5C 82.5,143.167 82.5,142.833 82.5,142.5C 85.3128,142.452 87.9795,141.785 90.5,140.5C 91.499,128.185 91.8324,115.851 91.5,103.5C 90.1667,103.5 88.8333,103.5 87.5,103.5C 84.9407,103.198 82.6074,103.532 80.5,104.5C 79.1667,104.5 77.8333,104.5 76.5,104.5C 74.8008,104.66 73.1341,104.494 71.5,104C 78.3974,102.4 85.3974,101.567 92.5,101.5C 92.5,103.5 92.5,105.5 92.5,107.5 Z"/></g>
<g><path style="opacity:1" fill="#1a3367" d="M 97.5,106.5 C 97.8333,106.5 98.1667,106.5 98.5,106.5C 98.5,108.833 98.5,111.167 98.5,113.5C 98.5,116.5 98.5,119.5 98.5,122.5C 98.5,123.5 98.5,124.5 98.5,125.5C 98.5,129.167 98.5,132.833 98.5,136.5C 94.2411,136.102 92.4078,138.102 93,142.5C 92.5001,130.838 92.3335,119.171 92.5,107.5C 94.4147,107.784 96.0813,107.451 97.5,106.5 Z"/></g>
<g><path style="opacity:1" fill="#2a2e31" d="M 98.5,113.5 C 99.8333,113.5 101.167,113.5 102.5,113.5C 102.5,116.167 102.5,118.833 102.5,121.5C 101.041,121.433 99.7079,121.766 98.5,122.5C 98.5,119.5 98.5,116.5 98.5,113.5 Z"/></g>
<g><path style="opacity:1" fill="#36423d" d="M 108.5,102.5 C 109.295,109.087 109.795,115.754 110,122.5C 111.333,121.833 112.333,120.833 113,119.5C 113.72,121.112 113.554,122.612 112.5,124C 111.551,124.617 110.718,124.451 110,123.5C 109.819,126.695 109.319,129.695 108.5,132.5C 107.204,121.952 107.204,111.952 108.5,102.5 Z"/></g>
<g><path style="opacity:1" fill="#3a4a57" d="M 9.5,96.5 C 10.4013,97.2905 11.0679,98.2905 11.5,99.5C 9.58377,101.669 8.25043,104.335 7.5,107.5C 7.62358,108.107 7.95691,108.44 8.5,108.5C 6.79818,110.8 6.13152,113.467 6.5,116.5C 6.5,117.5 6.5,118.5 6.5,119.5C 8.76595,119.859 10.5993,119.192 12,117.5C 12.6667,121.167 12.6667,124.833 12,128.5C 11.5096,124.492 10.0096,123.825 7.5,126.5C 8.37598,127.251 9.37598,127.751 10.5,128C 8.88066,128.236 7.88066,129.069 7.5,130.5C 7.16667,130.5 6.83333,130.5 6.5,130.5C 6.56745,129.041 6.23411,127.708 5.5,126.5C 5.7128,123.549 5.04614,120.882 3.5,118.5C 4.87187,110.963 6.87187,103.63 9.5,96.5 Z"/></g>
<g><path style="opacity:1" fill="#91a29b" d="M 6.5,116.5 C 8.83333,116.5 11.1667,116.5 13.5,116.5C 13.5,120.5 13.5,124.5 13.5,128.5C 13.7373,129.791 13.404,130.791 12.5,131.5C 11.0813,130.549 9.41467,130.216 7.5,130.5C 7.88066,129.069 8.88066,128.236 10.5,128C 9.37598,127.751 8.37598,127.251 7.5,126.5C 10.0096,123.825 11.5096,124.492 12,128.5C 12.6667,124.833 12.6667,121.167 12,117.5C 10.5993,119.192 8.76595,119.859 6.5,119.5C 6.5,118.5 6.5,117.5 6.5,116.5 Z"/></g>
<g><path style="opacity:1" fill="#21304c" d="M 80.5,104.5 C 82.6074,103.532 84.9407,103.198 87.5,103.5C 88.209,104.404 89.209,104.737 90.5,104.5C 90.5,114.833 90.5,125.167 90.5,135.5C 85.219,136.556 79.8856,137.223 74.5,137.5C 74.5,127.167 74.5,116.833 74.5,106.5C 78.4899,106.001 82.4899,105.501 86.5,105C 84.5273,104.505 82.5273,104.338 80.5,104.5 Z"/></g>
<g><path style="opacity:1" fill="#368be1" d="M 29.5,101.5 C 29.6936,117.841 30.1936,134.174 31,150.5C 31.2365,152.845 32.0698,154.845 33.5,156.5C 33.1667,156.5 32.8333,156.5 32.5,156.5C 30.8333,156.5 29.1667,156.5 27.5,156.5C 27.1667,156.5 26.8333,156.5 26.5,156.5C 26.3334,138.497 26.5001,120.497 27,102.5C 27.6708,101.748 28.5041,101.414 29.5,101.5 Z"/></g>
<g><path style="opacity:1" fill="#3b5a4b" d="M 98.5,106.5 C 99.2223,107.551 100.222,108.218 101.5,108.5C 100.194,109.467 99.5271,110.801 99.5,112.5C 101.451,112.227 102.951,112.893 104,114.5C 104.499,118.821 104.666,123.154 104.5,127.5C 103.167,127.5 101.833,127.5 100.5,127.5C 100.657,126.127 100.49,124.793 100,123.5C 99.7216,124.416 99.2216,125.082 98.5,125.5C 98.5,124.5 98.5,123.5 98.5,122.5C 99.7079,121.766 101.041,121.433 102.5,121.5C 102.5,118.833 102.5,116.167 102.5,113.5C 101.167,113.5 99.8333,113.5 98.5,113.5C 98.5,111.167 98.5,108.833 98.5,106.5 Z"/></g>
<g><path style="opacity:1" fill="#7a7c76" d="M 3.5,118.5 C 5.04614,120.882 5.7128,123.549 5.5,126.5C 2.94836,124.2 2.28169,121.533 3.5,118.5 Z"/></g>
<g><path style="opacity:1" fill="#c7d6a4" d="M 8.5,120.5 C 10.0481,120.821 10.7148,121.821 10.5,123.5C 7.75236,123.598 7.0857,122.598 8.5,120.5 Z"/></g>
<g><path style="opacity:1" fill="#7b8ca1" d="M 71.5,106.5 C 72.4952,118.655 72.8286,130.989 72.5,143.5C 75.8333,143.5 79.1667,143.5 82.5,143.5C 79.6946,144.319 76.6946,144.819 73.5,145C 78.0829,144.388 79.9163,146.221 79,150.5C 78.6174,151.056 78.1174,151.389 77.5,151.5C 76.6993,149.958 76.366,148.292 76.5,146.5C 74.4727,146.662 72.4727,146.495 70.5,146C 71.3366,144.989 71.67,143.822 71.5,142.5C 71.5,141.5 71.5,140.5 71.5,139.5C 71.5,129.167 71.5,118.833 71.5,108.5C 71.5,107.833 71.5,107.167 71.5,106.5 Z"/></g>
<g><path style="opacity:1" fill="#4f4e4c" d="M 136.5,108.5 C 134.919,110.086 132.919,111.086 130.5,111.5C 129.859,113.296 128.859,114.796 127.5,116C 129.25,117.754 129.917,119.921 129.5,122.5C 133.349,122.019 135.349,123.686 135.5,127.5C 132.336,127.442 129.336,126.776 126.5,125.5C 126.5,120.5 126.5,115.5 126.5,110.5C 129.684,109.357 133.017,108.691 136.5,108.5 Z"/></g>
<g><path style="opacity:1" fill="#546163" d="M 14.5,111.5 C 15.1859,112.848 16.1859,114.015 17.5,115C 16.5769,117.041 16.2436,119.208 16.5,121.5C 15.2235,122.317 14.8901,120.317 15.5,115.5C 13.6536,115.778 12.3202,115.111 11.5,113.5C 12.0047,112.081 13.0047,111.415 14.5,111.5 Z"/></g>
<g><path style="opacity:1" fill="#7d91b1" d="M 48.5,118.5 C 49.4511,119.919 49.7845,121.585 49.5,123.5C 58.8099,123.672 58.8099,124.172 49.5,125C 49.8333,125.333 50.1667,125.667 50.5,126C 62.4634,125.36 62.4634,126.026 50.5,128C 50.8333,129 51.1667,130 51.5,131C 53.8333,131.333 56.1667,131.667 58.5,132C 56.2456,133.651 53.9122,133.818 51.5,132.5C 50.6143,133.325 50.281,134.325 50.5,135.5C 49.1164,130.056 48.4497,124.389 48.5,118.5 Z"/></g>
<g><path style="opacity:1" fill="#3e6e52" d="M 107.5,97.5 C 107.61,99.0982 107.943,100.765 108.5,102.5C 107.204,111.952 107.204,121.952 108.5,132.5C 108.5,136.833 108.5,141.167 108.5,145.5C 106.227,144.729 105.894,143.396 107.5,141.5C 107.42,139.67 106.587,138.337 105,137.5C 103.285,138.604 101.785,139.938 100.5,141.5C 99.5987,140.71 98.9321,139.71 98.5,138.5C 98.5,137.833 98.5,137.167 98.5,136.5C 98.5,132.833 98.5,129.167 98.5,125.5C 99.2216,125.082 99.7216,124.416 100,123.5C 100.49,124.793 100.657,126.127 100.5,127.5C 101.833,127.5 103.167,127.5 104.5,127.5C 104.666,123.154 104.499,118.821 104,114.5C 102.951,112.893 101.451,112.227 99.5,112.5C 99.5271,110.801 100.194,109.467 101.5,108.5C 103.048,108.179 103.715,107.179 103.5,105.5C 104.165,103.302 104.832,100.969 105.5,98.5C 106.183,98.1373 106.85,97.8039 107.5,97.5 Z"/></g>
<g><path style="opacity:1" fill="#1b1f23" d="M 116.5,107.5 C 117.873,109.207 119.539,110.54 121.5,111.5C 122.5,112.167 123.5,112.833 124.5,113.5C 124.5,124.5 124.5,135.5 124.5,146.5C 121.907,145.246 119.573,143.58 117.5,141.5C 115.828,138.054 116.161,134.887 118.5,132C 116.551,124.106 115.884,115.939 116.5,107.5 Z"/></g>
<g><path style="opacity:1" fill="#0136a3" d="M 42.5,93.5 C 42.5,94.1667 42.1667,94.5 41.5,94.5C 40.5028,94.4701 39.8361,94.9701 39.5,96C 40.3121,112.468 40.8121,128.968 41,145.5C 41.1862,148.036 41.6862,150.369 42.5,152.5C 42.5,152.833 42.5,153.167 42.5,153.5C 40.2591,152.7 39.2591,151.034 39.5,148.5C 39.0162,130.17 38.6829,111.837 38.5,93.5C 39.8333,93.5 41.1667,93.5 42.5,93.5 Z"/></g>
<g><path style="opacity:1" fill="#0b1630" d="M 43.5,92.5 C 43.5,93.1667 43.1667,93.5 42.5,93.5C 41.1667,93.5 39.8333,93.5 38.5,93.5C 38.6829,111.837 39.0162,130.17 39.5,148.5C 38.8333,150.5 38.1667,152.5 37.5,154.5C 37.6849,136.153 37.3515,117.819 36.5,99.5C 37.1653,97.3021 37.8319,94.9688 38.5,92.5C 40.0026,91.9478 41.6693,91.9478 43.5,92.5 Z"/></g>
<g><path style="opacity:1" fill="#8c7129" d="M 127.5,96.5 C 127.5,98.5 127.5,100.5 127.5,102.5C 127.5,102.833 127.5,103.167 127.5,103.5C 126.532,105.607 126.198,107.941 126.5,110.5C 126.5,115.5 126.5,120.5 126.5,125.5C 126.5,128.5 126.5,131.5 126.5,134.5C 126.5,136.833 126.5,139.167 126.5,141.5C 125.962,143.806 125.295,145.472 124.5,146.5C 124.5,135.5 124.5,124.5 124.5,113.5C 125.167,106.655 125.833,99.6553 126.5,92.5C 127.429,93.6888 127.762,95.0222 127.5,96.5 Z"/></g>
<g><path style="opacity:1" fill="#5d6368" d="M 13.5,128.5 C 14.3382,128.842 14.6716,129.508 14.5,130.5C 15.4832,132.291 16.8165,133.791 18.5,135C 17.2068,135.49 15.8734,135.657 14.5,135.5C 13.5655,136.568 13.2322,137.901 13.5,139.5C 12.8333,139.5 12.1667,139.5 11.5,139.5C 12.388,136.946 12.7214,134.279 12.5,131.5C 13.404,130.791 13.7373,129.791 13.5,128.5 Z"/></g>
<g><path style="opacity:1" fill="#b9c0ca" d="M 64.5,114.5 C 64.5,121.5 64.5,128.5 64.5,135.5C 61.658,134.89 58.9913,135.556 56.5,137.5C 55.8333,137.5 55.1667,137.5 54.5,137.5C 52.6203,137.771 51.287,137.104 50.5,135.5C 50.281,134.325 50.6143,133.325 51.5,132.5C 53.9122,133.818 56.2456,133.651 58.5,132C 56.1667,131.667 53.8333,131.333 51.5,131C 51.1667,130 50.8333,129 50.5,128C 62.4634,126.026 62.4634,125.36 50.5,126C 50.1667,125.667 49.8333,125.333 49.5,125C 58.8099,124.172 58.8099,123.672 49.5,123.5C 49.7845,121.585 49.4511,119.919 48.5,118.5C 48.4877,115.858 49.821,114.525 52.5,114.5C 53.1667,114.5 53.8333,114.5 54.5,114.5C 58.1462,115.815 61.4796,115.815 64.5,114.5 Z"/></g>
<g><path style="opacity:1" fill="#535e6d" d="M 94.5,128.5 C 95.3764,128.369 96.0431,128.702 96.5,129.5C 96.1667,130.833 95.8333,132.167 95.5,133.5C 94.5481,131.955 94.2148,130.288 94.5,128.5 Z"/></g>
<g><path style="opacity:1" fill="#171a1e" d="M 106.5,85.5 C 108.966,84.3659 111.633,84.1993 114.5,85C 114.167,85.3333 113.833,85.6667 113.5,86C 116.352,88.3757 117.018,91.209 115.5,94.5C 115.391,111.564 114.724,128.564 113.5,145.5C 111.408,145.561 109.908,146.561 109,148.5C 108.415,149.998 108.915,150.998 110.5,151.5C 110.53,152.497 110.03,153.164 109,153.5C 107.235,152.368 105.402,151.368 103.5,150.5C 103.5,149.5 103.5,148.5 103.5,147.5C 105.698,147.88 107.365,147.213 108.5,145.5C 108.5,141.167 108.5,136.833 108.5,132.5C 109.319,129.695 109.819,126.695 110,123.5C 110.718,124.451 111.551,124.617 112.5,124C 113.554,122.612 113.72,121.112 113,119.5C 112.333,120.833 111.333,121.833 110,122.5C 109.795,115.754 109.295,109.087 108.5,102.5C 109.434,101.228 110.101,99.7275 110.5,98C 109.596,93.8886 109.263,89.722 109.5,85.5C 108.5,85.5 107.5,85.5 106.5,85.5 Z"/></g>
<g><path style="opacity:1" fill="#cfd3ca" d="M 101.5,131.5 C 102.397,132.598 103.23,132.598 104,131.5C 104.494,133.134 104.66,134.801 104.5,136.5C 103.448,136.649 102.448,136.483 101.5,136C 102.413,134.586 102.413,133.086 101.5,131.5 Z"/></g>
<g><path style="opacity:1" fill="#13161c" d="M 64.5,135.5 C 64.5,138.167 64.5,140.833 64.5,143.5C 61.5927,144.787 58.5927,145.787 55.5,146.5C 55.2641,143.391 55.5975,140.391 56.5,137.5C 58.9913,135.556 61.658,134.89 64.5,135.5 Z"/></g>
<g><path style="opacity:1" fill="#0b316c" d="M 71.5,108.5 C 71.5,118.833 71.5,129.167 71.5,139.5C 70.7281,138.306 69.7281,137.306 68.5,136.5C 68.3184,134.409 68.6518,132.409 69.5,130.5C 69.0431,129.702 68.3764,129.369 67.5,129.5C 66.6762,133.312 66.1762,137.312 66,141.5C 65.0237,128.408 65.1904,120.742 66.5,118.5C 66.5,121.833 66.5,125.167 66.5,128.5C 67.5,128.5 68.5,128.5 69.5,128.5C 69.7733,126.549 69.1066,125.049 67.5,124C 68.1667,123.667 68.8333,123.333 69.5,123C 68.5769,120.959 68.2436,118.792 68.5,116.5C 69.0107,114.199 69.344,111.866 69.5,109.5C 70.1667,109.167 70.8333,108.833 71.5,108.5 Z"/></g>
<g><path style="opacity:1" fill="#98a4b0" d="M 67.5,129.5 C 68.3764,129.369 69.0431,129.702 69.5,130.5C 68.6518,132.409 68.3184,134.409 68.5,136.5C 67.2201,136.637 66.8868,134.303 67.5,129.5 Z"/></g>
<g><path style="opacity:1" fill="#597091" d="M 68.5,116.5 C 68.2436,118.792 68.5769,120.959 69.5,123C 68.8333,123.333 68.1667,123.667 67.5,124C 69.1066,125.049 69.7733,126.549 69.5,128.5C 68.5,128.5 67.5,128.5 66.5,128.5C 66.5,125.167 66.5,121.833 66.5,118.5C 67.3019,117.048 67.8019,115.382 68,113.5C 68.4828,114.448 68.6495,115.448 68.5,116.5 Z"/></g>
<g><path style="opacity:1" fill="#121417" d="M 87.5,103.5 C 88.8333,103.5 90.1667,103.5 91.5,103.5C 91.8324,115.851 91.499,128.185 90.5,140.5C 87.9795,141.785 85.3128,142.452 82.5,142.5C 81.1266,142.657 79.7932,142.49 78.5,142C 81.914,141.703 85.2473,141.036 88.5,140C 87.3999,138.977 86.0666,138.477 84.5,138.5C 81.108,138.889 77.7746,139.556 74.5,140.5C 75.5063,141.396 75.5063,142.062 74.5,142.5C 73.501,130.185 73.1676,117.851 73.5,105.5C 74.791,105.737 75.791,105.404 76.5,104.5C 77.8333,104.5 79.1667,104.5 80.5,104.5C 82.5273,104.338 84.5273,104.505 86.5,105C 82.4899,105.501 78.4899,106.001 74.5,106.5C 74.5,116.833 74.5,127.167 74.5,137.5C 79.8856,137.223 85.219,136.556 90.5,135.5C 90.5,125.167 90.5,114.833 90.5,104.5C 89.209,104.737 88.209,104.404 87.5,103.5 Z"/></g>
<g><path style="opacity:1" fill="#a0a1a1" d="M 126.5,141.5 C 126.5,139.167 126.5,136.833 126.5,134.5C 129.728,133.586 133.061,133.253 136.5,133.5C 136.877,140.349 133.544,143.016 126.5,141.5 Z"/></g>
<g><path style="opacity:1" fill="#0f65d5" d="M 44.5,99.5 C 44.8301,117.674 44.4968,135.674 43.5,153.5C 43.1667,153.5 42.8333,153.5 42.5,153.5C 42.5,153.167 42.5,152.833 42.5,152.5C 42.6983,134.658 43.365,116.991 44.5,99.5 Z"/></g>
<g><path style="opacity:1" fill="#263a5b" d="M 65.5,103.5 C 65.6495,105.143 65.9829,106.81 66.5,108.5C 67.209,109.404 68.209,109.737 69.5,109.5C 69.344,111.866 69.0107,114.199 68.5,116.5C 68.6495,115.448 68.4828,114.448 68,113.5C 67.8019,115.382 67.3019,117.048 66.5,118.5C 65.1904,120.742 65.0237,128.408 66,141.5C 66.1762,137.312 66.6762,133.312 67.5,129.5C 66.8868,134.303 67.2201,136.637 68.5,136.5C 69.7281,137.306 70.7281,138.306 71.5,139.5C 71.5,140.5 71.5,141.5 71.5,142.5C 70.5326,141.194 69.1993,140.527 67.5,140.5C 66.8617,142.46 66.8617,144.293 67.5,146C 66.5632,146.692 65.8966,146.525 65.5,145.5C 65.1667,144.833 64.8333,144.167 64.5,143.5C 64.5,140.833 64.5,138.167 64.5,135.5C 64.5,128.5 64.5,121.5 64.5,114.5C 64.5,112.167 64.5,109.833 64.5,107.5C 64.4326,106.041 64.7659,104.708 65.5,103.5 Z"/></g>
<g><path style="opacity:1" fill="#5a8450" d="M 108.5,145.5 C 107.365,147.213 105.698,147.88 103.5,147.5C 103.768,145.901 103.434,144.568 102.5,143.5C 102.5,142.167 101.833,141.5 100.5,141.5C 101.785,139.938 103.285,138.604 105,137.5C 106.587,138.337 107.42,139.67 107.5,141.5C 105.894,143.396 106.227,144.729 108.5,145.5 Z"/></g>
<g><path style="opacity:1" fill="#0453cd" d="M 41.5,94.5 C 42.5981,95.397 42.5981,96.2303 41.5,97C 42.0442,97.7172 42.7109,98.2172 43.5,98.5C 45.2239,98.4607 45.5573,98.794 44.5,99.5C 43.365,116.991 42.6983,134.658 42.5,152.5C 41.6862,150.369 41.1862,148.036 41,145.5C 40.8121,128.968 40.3121,112.468 39.5,96C 39.8361,94.9701 40.5028,94.4701 41.5,94.5 Z"/></g>
<g><path style="opacity:1" fill="#213e6d" d="M 54.5,137.5 C 55.1667,137.5 55.8333,137.5 56.5,137.5C 55.5975,140.391 55.2641,143.391 55.5,146.5C 55.5,148.5 55.5,150.5 55.5,152.5C 55.1667,152.5 54.8333,152.5 54.5,152.5C 54.5,147.5 54.5,142.5 54.5,137.5 Z"/></g>
<g><path style="opacity:1" fill="#556f52" d="M 94.5,143.5 C 95.4614,145.265 95.7947,147.265 95.5,149.5C 93.5,149.5 91.5,149.5 89.5,149.5C 88.5489,148.081 88.2155,146.415 88.5,144.5C 89.1174,144.611 89.6174,144.944 90,145.5C 91.049,143.893 92.549,143.227 94.5,143.5 Z"/></g>
<g><path style="opacity:1" fill="#1c3157" d="M 6.5,130.5 C 6.83333,130.5 7.16667,130.5 7.5,130.5C 9.41467,130.216 11.0813,130.549 12.5,131.5C 12.7214,134.279 12.388,136.946 11.5,139.5C 10.6749,141.125 11.0082,142.792 12.5,144.5C 15.7748,143.048 16.1082,141.381 13.5,139.5C 13.2322,137.901 13.5655,136.568 14.5,135.5C 16.4094,143.228 17.4094,151.228 17.5,159.5C 11.2959,150.9 7.62925,141.233 6.5,130.5 Z"/></g>
<g><path style="opacity:1" fill="#c39fa0" d="M 11.5,139.5 C 12.1667,139.5 12.8333,139.5 13.5,139.5C 16.1082,141.381 15.7748,143.048 12.5,144.5C 11.0082,142.792 10.6749,141.125 11.5,139.5 Z"/></g>
<g><path style="opacity:1" fill="#949894" d="M 98.5,138.5 C 98.9321,139.71 99.5987,140.71 100.5,141.5C 101.833,141.5 102.5,142.167 102.5,143.5C 100.975,145.036 98.9749,146.036 96.5,146.5C 97.3629,147.726 97.3629,149.06 96.5,150.5C 96.5,151.833 96.5,153.167 96.5,154.5C 94.139,154.674 91.8056,155.007 89.5,155.5C 89.5,153.5 89.5,151.5 89.5,149.5C 91.5,149.5 93.5,149.5 95.5,149.5C 95.7947,147.265 95.4614,145.265 94.5,143.5C 94.5652,141.304 95.2319,139.304 96.5,137.5C 97.1835,137.863 97.8501,138.196 98.5,138.5 Z"/></g>
<g><path style="opacity:1" fill="#eaeaea" d="M 113.5,145.5 C 115.113,148.132 116.78,150.798 118.5,153.5C 117.575,154.562 116.575,154.562 115.5,153.5C 113.716,153.107 112.05,152.441 110.5,151.5C 108.915,150.998 108.415,149.998 109,148.5C 109.908,146.561 111.408,145.561 113.5,145.5 Z"/></g>
<g><path style="opacity:1" fill="#c6c9c3" d="M 102.5,143.5 C 103.434,144.568 103.768,145.901 103.5,147.5C 103.5,148.5 103.5,149.5 103.5,150.5C 102.833,150.5 102.167,150.5 101.5,150.5C 99.8333,150.5 98.1667,150.5 96.5,150.5C 97.3629,149.06 97.3629,147.726 96.5,146.5C 98.9749,146.036 100.975,145.036 102.5,143.5 Z"/></g>
<g><path style="opacity:1" fill="#d3d4ce" d="M 71.5,142.5 C 71.67,143.822 71.3366,144.989 70.5,146C 72.4727,146.495 74.4727,146.662 76.5,146.5C 76.366,148.292 76.6993,149.958 77.5,151.5C 77.5,151.833 77.5,152.167 77.5,152.5C 77.7678,154.099 77.4345,155.432 76.5,156.5C 71.586,157.707 66.586,158.374 61.5,158.5C 61.5,158.167 61.5,157.833 61.5,157.5C 61.5,153.5 61.5,149.5 61.5,145.5C 62.8333,145.5 64.1667,145.5 65.5,145.5C 65.8966,146.525 66.5632,146.692 67.5,146C 66.8617,144.293 66.8617,142.46 67.5,140.5C 69.1993,140.527 70.5326,141.194 71.5,142.5 Z"/></g>
<g><path style="opacity:1" fill="#181c22" d="M 19.5,96.5 C 19.3612,104.382 20.0279,112.049 21.5,119.5C 21.3335,131.171 21.5001,142.838 22,154.5C 23.1096,156.037 24.6096,156.703 26.5,156.5C 26.8333,156.5 27.1667,156.5 27.5,156.5C 28.1098,157.391 28.4431,158.391 28.5,159.5C 28.5,159.833 28.5,160.167 28.5,160.5C 28.5,161.167 28.5,161.833 28.5,162.5C 25.6377,163.681 22.6377,163.681 19.5,162.5C 18.8333,161.5 18.1667,160.5 17.5,159.5C 17.4094,151.228 16.4094,143.228 14.5,135.5C 15.8734,135.657 17.2068,135.49 18.5,135C 16.8165,133.791 15.4832,132.291 14.5,130.5C 16.3567,128.739 17.3567,126.406 17.5,123.5C 17.4573,122.584 17.1239,121.917 16.5,121.5C 16.2436,119.208 16.5769,117.041 17.5,115C 16.1859,114.015 15.1859,112.848 14.5,111.5C 14.5,110.833 14.5,110.167 14.5,109.5C 15.9673,105.099 17.6339,100.766 19.5,96.5 Z"/></g>
<g><path style="opacity:1" fill="#c03735" d="M 17.5,140.5 C 19.337,140.639 19.6704,141.306 18.5,142.5C 17.7025,142.043 17.3691,141.376 17.5,140.5 Z"/></g>
<g><path style="opacity:1" fill="#16222f" d="M 82.5,143.5 C 84.7354,143.205 86.7354,143.539 88.5,144.5C 88.2155,146.415 88.5489,148.081 89.5,149.5C 89.5,151.5 89.5,153.5 89.5,155.5C 89.4326,156.959 89.7659,158.292 90.5,159.5C 89.5,159.5 88.5,159.5 87.5,159.5C 89.0579,156.756 88.3912,154.59 85.5,153C 82.854,152.503 80.1873,152.336 77.5,152.5C 77.5,152.167 77.5,151.833 77.5,151.5C 78.1174,151.389 78.6174,151.056 79,150.5C 79.9163,146.221 78.0829,144.388 73.5,145C 76.6946,144.819 79.6946,144.319 82.5,143.5 Z"/></g>
<g><path style="opacity:1" fill="#121215" d="M 77.5,152.5 C 80.1873,152.336 82.854,152.503 85.5,153C 88.3912,154.59 89.0579,156.756 87.5,159.5C 84.4215,160.372 81.4215,160.372 78.5,159.5C 75.4371,160.765 74.7704,159.765 76.5,156.5C 77.4345,155.432 77.7678,154.099 77.5,152.5 Z"/></g>
<g><path style="opacity:1" fill="#676660" d="M 64.5,143.5 C 64.8333,144.167 65.1667,144.833 65.5,145.5C 64.1667,145.5 62.8333,145.5 61.5,145.5C 61.5,149.5 61.5,153.5 61.5,157.5C 59.9582,156.699 58.2915,156.366 56.5,156.5C 55.5655,155.432 55.2322,154.099 55.5,152.5C 55.5,150.5 55.5,148.5 55.5,146.5C 58.5927,145.787 61.5927,144.787 64.5,143.5 Z"/></g>
<g><path style="opacity:1" fill="#3b3722" d="M 101.5,150.5 C 102.167,150.5 102.833,150.5 103.5,150.5C 105.402,151.368 107.235,152.368 109,153.5C 110.03,153.164 110.53,152.497 110.5,151.5C 112.05,152.441 113.716,153.107 115.5,153.5C 113.833,154.5 112.5,155.833 111.5,157.5C 109.784,155.975 107.784,154.975 105.5,154.5C 104.375,153 103.041,151.667 101.5,150.5 Z"/></g>
<g><path style="opacity:1" fill="#102d52" d="M 96.5,150.5 C 98.1667,150.5 99.8333,150.5 101.5,150.5C 103.041,151.667 104.375,153 105.5,154.5C 101.78,160.044 97.1129,164.711 91.5,168.5C 91.5987,165.763 91.2653,163.096 90.5,160.5C 90.5,160.167 90.5,159.833 90.5,159.5C 89.7659,158.292 89.4326,156.959 89.5,155.5C 91.8056,155.007 94.139,154.674 96.5,154.5C 96.5,153.167 96.5,151.833 96.5,150.5 Z"/></g>
<g><path style="opacity:1" fill="#4e627c" d="M 27.5,156.5 C 29.1667,156.5 30.8333,156.5 32.5,156.5C 32.5,157.167 32.5,157.833 32.5,158.5C 31.2921,159.234 29.9587,159.567 28.5,159.5C 28.4431,158.391 28.1098,157.391 27.5,156.5 Z"/></g>
<g><path style="opacity:1" fill="#e4e6e6" d="M 32.5,158.5 C 31.8166,160.176 30.4832,160.843 28.5,160.5C 28.5,160.167 28.5,159.833 28.5,159.5C 29.9587,159.567 31.2921,159.234 32.5,158.5 Z"/></g>
<g><path style="opacity:1" fill="#686b6d" d="M 32.5,158.5 C 33.8014,159.64 34.9681,160.973 36,162.5C 36.6708,161.748 37.5041,161.414 38.5,161.5C 37.8163,163.185 36.483,164.185 34.5,164.5C 33.7492,163.624 33.2492,162.624 33,161.5C 32.6667,162.833 32.3333,164.167 32,165.5C 31.5172,164.552 31.3505,163.552 31.5,162.5C 30.5,162.5 29.5,162.5 28.5,162.5C 28.5,161.833 28.5,161.167 28.5,160.5C 30.4832,160.843 31.8166,160.176 32.5,158.5 Z"/></g>
<g><path style="opacity:1" fill="#3a2f21" d="M 76.5,156.5 C 74.7704,159.765 75.4371,160.765 78.5,159.5C 76.4116,161.02 74.0783,162.02 71.5,162.5C 71.1667,162.5 70.8333,162.5 70.5,162.5C 65.4115,163.105 60.4115,163.105 55.5,162.5C 57.2299,160.879 59.2299,159.545 61.5,158.5C 66.586,158.374 71.586,157.707 76.5,156.5 Z"/></g>
<g><path style="opacity:1" fill="#878686" d="M 78.5,159.5 C 81.4215,160.372 84.4215,160.372 87.5,159.5C 88.5,159.5 89.5,159.5 90.5,159.5C 90.5,159.833 90.5,160.167 90.5,160.5C 86.4153,160.376 82.7486,161.376 79.5,163.5C 76.9455,162.612 74.2788,162.279 71.5,162.5C 74.0783,162.02 76.4116,161.02 78.5,159.5 Z"/></g>
<g><path style="opacity:1" fill="#171718" d="M 90.5,160.5 C 91.2653,163.096 91.5987,165.763 91.5,168.5C 92.7371,180.587 87.4037,186.587 75.5,186.5C 74.3709,184.372 74.2042,182.039 75,179.5C 76.6396,174.108 78.1396,168.774 79.5,163.5C 82.7486,161.376 86.4153,160.376 90.5,160.5 Z"/></g>
<g><path style="opacity:1" fill="#8c8981" d="M 55.5,162.5 C 60.4115,163.105 65.4115,163.105 70.5,162.5C 66.5387,163.684 62.5387,164.684 58.5,165.5C 55.4655,165.817 54.4655,164.817 55.5,162.5 Z"/></g>
<g><path style="opacity:1" fill="#6d7072" d="M 115.5,162.5 C 115.573,164.027 114.906,165.027 113.5,165.5C 113.427,163.973 114.094,162.973 115.5,162.5 Z"/></g>
<g><path style="opacity:1" fill="#1b1c1f" d="M 39.5,148.5 C 39.2591,151.034 40.2591,152.7 42.5,153.5C 42.8333,153.5 43.1667,153.5 43.5,153.5C 44.9187,154.451 46.5853,154.784 48.5,154.5C 50.5786,154.029 52.5786,153.363 54.5,152.5C 54.8333,152.5 55.1667,152.5 55.5,152.5C 55.2322,154.099 55.5655,155.432 56.5,156.5C 56.5,157.5 56.5,158.5 56.5,159.5C 55.448,159.649 54.448,159.483 53.5,159C 54.4506,158.282 54.6172,157.449 54,156.5C 51.7572,157.971 49.2572,158.971 46.5,159.5C 45.4798,161.432 45.3131,163.432 46,165.5C 46.6543,164.304 47.1543,164.304 47.5,165.5C 46.7333,171.249 47.5666,171.582 50,166.5C 51.0084,166.982 52.175,167.148 53.5,167C 51.1769,169.17 49.5103,171.67 48.5,174.5C 47.5166,178.298 47.1832,182.298 47.5,186.5C 39.7264,183.071 33.0598,178.071 27.5,171.5C 30.3388,173.42 33.3388,175.087 36.5,176.5C 37.9607,179.02 39.9607,181.02 42.5,182.5C 46.2407,183.742 47.2407,182.409 45.5,178.5C 43.9867,177.691 42.3201,177.524 40.5,178C 37.758,176.114 36.0913,173.614 35.5,170.5C 36.5,170.5 37.5,170.5 38.5,170.5C 38.56,171.043 38.8933,171.376 39.5,171.5C 40.4119,167.867 41.0785,164.2 41.5,160.5C 40.209,160.263 39.209,160.596 38.5,161.5C 37.5041,161.414 36.6708,161.748 36,162.5C 34.9681,160.973 33.8014,159.64 32.5,158.5C 32.5,157.833 32.5,157.167 32.5,156.5C 32.8333,156.5 33.1667,156.5 33.5,156.5C 34.7095,156.068 35.7095,155.401 36.5,154.5C 36.8333,154.5 37.1667,154.5 37.5,154.5C 38.1667,152.5 38.8333,150.5 39.5,148.5 Z"/></g>
<g><path style="opacity:1" fill="#153254" d="M 38.5,170.5 C 37.5449,168.29 36.0449,167.957 34,169.5C 33.3333,170.833 33.3333,172.167 34,173.5C 35.045,174.373 35.8783,175.373 36.5,176.5C 33.3388,175.087 30.3388,173.42 27.5,171.5C 24.8333,168.5 22.1667,165.5 19.5,162.5C 22.6377,163.681 25.6377,163.681 28.5,162.5C 29.5,162.5 30.5,162.5 31.5,162.5C 31.3505,163.552 31.5172,164.552 32,165.5C 32.3333,164.167 32.6667,162.833 33,161.5C 33.2492,162.624 33.7492,163.624 34.5,164.5C 36.483,164.185 37.8163,163.185 38.5,161.5C 39.209,160.596 40.209,160.263 41.5,160.5C 41.0785,164.2 40.4119,167.867 39.5,171.5C 38.8933,171.376 38.56,171.043 38.5,170.5 Z"/></g>
<g><path style="opacity:1" fill="#0d0d0f" d="M 56.5,156.5 C 58.2915,156.366 59.9582,156.699 61.5,157.5C 61.5,157.833 61.5,158.167 61.5,158.5C 59.2299,159.545 57.2299,160.879 55.5,162.5C 54.4655,164.817 55.4655,165.817 58.5,165.5C 63.6118,167.1 68.9451,167.933 74.5,168C 74.8333,168.333 75.1667,168.667 75.5,169C 74.552,169.483 73.552,169.649 72.5,169.5C 72.7306,173.993 72.064,178.326 70.5,182.5C 69.4625,181.07 68.7959,179.403 68.5,177.5C 69.4959,177.586 70.3292,177.252 71,176.5C 71.4974,173.854 71.6641,171.187 71.5,168.5C 69.2011,169.138 67.0344,170.138 65,171.5C 64.6121,170.572 63.9454,169.905 63,169.5C 61.4329,170.856 59.5996,171.523 57.5,171.5C 56.9305,176.671 55.9305,181.671 54.5,186.5C 53.8333,186.167 53.1667,185.833 52.5,185.5C 51.4324,184.566 50.099,184.232 48.5,184.5C 48.5,181.167 48.5,177.833 48.5,174.5C 49.5103,171.67 51.1769,169.17 53.5,167C 52.175,167.148 51.0084,166.982 50,166.5C 47.5666,171.582 46.7333,171.249 47.5,165.5C 47.1543,164.304 46.6543,164.304 46,165.5C 45.3131,163.432 45.4798,161.432 46.5,159.5C 49.2572,158.971 51.7572,157.971 54,156.5C 54.6172,157.449 54.4506,158.282 53.5,159C 54.448,159.483 55.448,159.649 56.5,159.5C 56.5,158.5 56.5,157.5 56.5,156.5 Z"/></g>
<g><path style="opacity:1" fill="#282626" d="M 70.5,162.5 C 70.8333,162.5 71.1667,162.5 71.5,162.5C 74.2788,162.279 76.9455,162.612 79.5,163.5C 78.1396,168.774 76.6396,174.108 75,179.5C 74.2042,182.039 74.3709,184.372 75.5,186.5C 74.791,187.404 73.791,187.737 72.5,187.5C 70.744,186.448 70.0773,184.781 70.5,182.5C 72.064,178.326 72.7306,173.993 72.5,169.5C 73.552,169.649 74.552,169.483 75.5,169C 75.1667,168.667 74.8333,168.333 74.5,168C 68.9451,167.933 63.6118,167.1 58.5,165.5C 62.5387,164.684 66.5387,163.684 70.5,162.5 Z"/></g>
<g><path style="opacity:1" fill="#696c6f" d="M 113.5,165.5 C 110.252,170.419 106.252,174.753 101.5,178.5C 100.343,175.216 100.176,171.882 101,168.5C 101.333,171.167 101.667,173.833 102,176.5C 105.702,172.63 109.536,168.963 113.5,165.5 Z"/></g>
<g><path style="opacity:1" fill="#232425" d="M 68.5,177.5 C 67.713,175.896 66.3797,175.229 64.5,175.5C 63.5367,179.101 62.87,182.767 62.5,186.5C 64.4458,186.193 66.1125,186.193 67.5,186.5C 64.9135,187.48 62.2469,187.813 59.5,187.5C 57.5853,187.784 55.9187,187.451 54.5,186.5C 55.9305,181.671 56.9305,176.671 57.5,171.5C 59.5996,171.523 61.4329,170.856 63,169.5C 63.9454,169.905 64.6121,170.572 65,171.5C 67.0344,170.138 69.2011,169.138 71.5,168.5C 71.6641,171.187 71.4974,173.854 71,176.5C 70.3292,177.252 69.4959,177.586 68.5,177.5 Z"/></g>
<g><path style="opacity:1" fill="#433e34" d="M 38.5,170.5 C 37.5,170.5 36.5,170.5 35.5,170.5C 36.0913,173.614 37.758,176.114 40.5,178C 42.3201,177.524 43.9867,177.691 45.5,178.5C 43.7376,179.262 42.7376,180.596 42.5,182.5C 39.9607,181.02 37.9607,179.02 36.5,176.5C 35.8783,175.373 35.045,174.373 34,173.5C 33.3333,172.167 33.3333,170.833 34,169.5C 36.0449,167.957 37.5449,168.29 38.5,170.5 Z"/></g>
<g><path style="opacity:1" fill="#a29f94" d="M 45.5,178.5 C 47.2407,182.409 46.2407,183.742 42.5,182.5C 42.7376,180.596 43.7376,179.262 45.5,178.5 Z"/></g>
<g><path style="opacity:1" fill="#7f8181" d="M 48.5,174.5 C 48.5,177.833 48.5,181.167 48.5,184.5C 50.099,184.232 51.4324,184.566 52.5,185.5C 50.6096,185.297 49.1096,185.963 48,187.5C 47.6012,187.272 47.4346,186.938 47.5,186.5C 47.1832,182.298 47.5166,178.298 48.5,174.5 Z"/></g>
<g><path style="opacity:1" fill="#4b4c4b" d="M 68.5,177.5 C 68.7959,179.403 69.4625,181.07 70.5,182.5C 70.0773,184.781 70.744,186.448 72.5,187.5C 68.1667,188.833 63.8333,188.833 59.5,187.5C 62.2469,187.813 64.9135,187.48 67.5,186.5C 66.1125,186.193 64.4458,186.193 62.5,186.5C 62.87,182.767 63.5367,179.101 64.5,175.5C 66.3797,175.229 67.713,175.896 68.5,177.5 Z"/></g>
</svg>
