<?xml version="1.0" encoding="UTF-8"?>
<!DOCTYPE svg PUBLIC "-//W3C//DTD SVG 1.1//EN" "http://www.w3.org/Graphics/SVG/1.1/DTD/svg11.dtd">
<svg xmlns="http://www.w3.org/2000/svg" version="1.1" width="512px" height="512px" style="shape-rendering:geometricPrecision; text-rendering:geometricPrecision; image-rendering:optimizeQuality; fill-rule:evenodd; clip-rule:evenodd" xmlns:xlink="http://www.w3.org/1999/xlink">
<g><path style="opacity:0.994" fill="#252525" d="M 511.5,80.5 C 511.5,98.5 511.5,116.5 511.5,134.5C 508.351,142.481 502.684,147.981 494.5,151C 481.546,152.377 468.546,152.877 455.5,152.5C 455.5,221.5 455.5,290.5 455.5,359.5C 468.504,359.333 481.504,359.5 494.5,360C 502.684,363.019 508.351,368.519 511.5,376.5C 511.5,394.5 511.5,412.5 511.5,430.5C 507.484,441.004 499.817,446.838 488.5,448C 477.152,448.168 465.819,448.668 454.5,449.5C 450.685,460.748 443.019,467.915 431.5,471C 409.866,472.586 388.2,472.919 366.5,472C 346.076,471.212 330.243,462.379 319,445.5C 314.15,435.136 309.317,424.803 304.5,414.5C 288.506,409.668 272.506,404.834 256.5,400C 237.275,391.722 226.109,377.222 223,356.5C 216.436,361.972 208.936,365.639 200.5,367.5C 199.668,378.151 199.168,388.818 199,399.5C 195.833,412 188,419.833 175.5,423C 154.167,423.667 132.833,423.667 111.5,423C 98.906,419.907 91.2393,412.073 88.5,399.5C 60.1647,399.667 31.8314,399.5 3.5,399C 1.64977,398.31 0.316435,397.144 -0.5,395.5C -0.5,392.833 -0.5,390.167 -0.5,387.5C 0.316435,385.856 1.64977,384.69 3.5,384C 31.498,383.5 59.498,383.333 87.5,383.5C 87.5,378.167 87.5,372.833 87.5,367.5C 58.7775,369.592 40.2775,356.925 32,329.5C 31.3333,280.167 31.3333,230.833 32,181.5C 40.2775,154.075 58.7775,141.408 87.5,143.5C 87.5,138.5 87.5,133.5 87.5,128.5C 60.8313,128.667 34.1646,128.5 7.5,128C 3.99526,127.754 1.32859,126.254 -0.5,123.5C -0.5,120.833 -0.5,118.167 -0.5,115.5C 0.316435,113.856 1.64977,112.69 3.5,112C 31.8314,111.5 60.1647,111.333 88.5,111.5C 91.2393,98.9265 98.906,91.0932 111.5,88C 132.833,87.3333 154.167,87.3333 175.5,88C 188,91.1667 195.833,99 199,111.5C 199.168,122.182 199.668,132.849 200.5,143.5C 208.936,145.361 216.436,149.028 223,154.5C 226.109,133.778 237.275,119.278 256.5,111C 272.506,106.166 288.506,101.332 304.5,96.5C 309.728,85.0443 315.228,73.711 321,62.5C 329.978,50.5891 341.811,43.0891 356.5,40C 381.5,39.3333 406.5,39.3333 431.5,40C 443.759,43.4244 451.425,51.2578 454.5,63.5C 467.837,63.3334 481.171,63.5001 494.5,64C 502.684,67.0191 508.351,72.5191 511.5,80.5 Z"/></g>
<g><path style="opacity:1" fill="#eebb55" d="M 375.5,55.5 C 383.5,55.5 391.5,55.5 399.5,55.5C 399.833,81.8418 399.5,108.175 398.5,134.5C 386.701,130.534 379.201,122.534 376,110.5C 375.5,92.1697 375.333,73.8364 375.5,55.5 Z"/></g>
<g><path style="opacity:1" fill="#41b64a" d="M 415.5,55.5 C 426.283,53.1438 434.116,56.8105 439,66.5C 439.5,105.499 439.667,144.499 439.5,183.5C 422.497,183.333 405.497,183.5 388.5,184C 387.069,184.465 385.903,185.299 385,186.5C 383.843,209.247 383.343,232.081 383.5,255C 383.348,278.228 383.848,301.394 385,324.5C 385.903,325.701 387.069,326.535 388.5,327C 405.497,327.5 422.497,327.667 439.5,327.5C 439.667,366.501 439.5,405.501 439,444.5C 434.116,454.19 426.283,457.856 415.5,455.5C 415.667,425.165 415.5,394.832 415,364.5C 412.817,360.759 409.484,359.093 405,359.5C 380.454,362.714 365.454,376.38 360,400.5C 359.5,418.497 359.333,436.497 359.5,454.5C 349.597,452.46 341.431,447.46 335,439.5C 329.233,428.871 324.233,417.871 320,406.5C 319.333,305.5 319.333,204.5 320,103.5C 324.428,92.5429 329.428,81.8762 335,71.5C 341.413,63.5475 349.58,58.5475 359.5,56.5C 359.333,73.8365 359.5,91.1699 360,108.5C 364.455,133.288 379.121,147.621 404,151.5C 406.925,151.477 409.759,150.977 412.5,150C 413.893,148.829 414.727,147.329 415,145.5C 415.5,115.502 415.667,85.5019 415.5,55.5 Z"/></g>
<g><path style="opacity:1" fill="#7f7f7f" d="M 455.5,79.5 C 467.909,79.0606 480.242,79.5606 492.5,81C 493.701,81.9025 494.535,83.0692 495,84.5C 495.667,99.5 495.667,114.5 495,129.5C 494.727,131.329 493.893,132.829 492.5,134C 480.242,135.439 467.909,135.939 455.5,135.5C 455.5,116.833 455.5,98.1667 455.5,79.5 Z"/></g>
<g><path style="opacity:1" fill="#6dbdd5" d="M 114.5,103.5 C 133.503,103.333 152.503,103.5 171.5,104C 176.91,105.743 180.744,109.243 183,114.5C 183.5,124.161 183.666,133.828 183.5,143.5C 156.833,143.5 130.167,143.5 103.5,143.5C 103.334,133.828 103.5,124.161 104,114.5C 106.357,109.645 109.857,105.979 114.5,103.5 Z"/></g>
<g><path style="opacity:1" fill="#6dbdd5" d="M 300.5,114.5 C 301.5,114.5 302.5,114.5 303.5,114.5C 303.5,208.5 303.5,302.5 303.5,396.5C 287.094,392.566 271.094,387.399 255.5,381C 246.39,374.954 241.223,366.454 240,355.5C 239.013,286.456 239.347,217.456 241,148.5C 245.167,137.667 252.667,130.167 263.5,126C 276.038,122.429 288.371,118.596 300.5,114.5 Z"/></g>
<g><path style="opacity:1" fill="#eebb55" d="M 72.5,159.5 C 114.501,159.333 156.501,159.5 198.5,160C 211.36,163.526 219.526,171.693 223,184.5C 223.667,231.833 223.667,279.167 223,326.5C 219.5,339.333 211.333,347.5 198.5,351C 156.5,351.667 114.5,351.667 72.5,351C 59.6931,347.526 51.5264,339.36 48,326.5C 47.3333,279.167 47.3333,231.833 48,184.5C 51.6829,171.651 59.8496,163.318 72.5,159.5 Z"/></g>
<g><path style="opacity:1" fill="#27292a" d="M 268.5,159.5 C 279.167,160.003 281.833,164.836 276.5,174C 267.42,177.215 263.253,174.048 264,164.5C 265.025,162.313 266.525,160.646 268.5,159.5 Z"/></g>
<g><path style="opacity:1" fill="#272626" d="M 101.5,183.5 C 124.672,183.171 135.839,194.504 135,217.5C 129.608,233.615 118.441,240.782 101.5,239C 85.3998,233.645 78.2331,222.478 80,205.5C 83.3501,194.318 90.5167,186.984 101.5,183.5 Z"/></g>
<g><path style="opacity:1" fill="#262625" d="M 164.5,191.5 C 172.995,193.242 180.995,196.408 188.5,201C 189.701,201.903 190.535,203.069 191,204.5C 191.667,238.167 191.667,271.833 191,305.5C 190.727,307.329 189.893,308.829 188.5,310C 181.615,313.86 174.448,317.027 167,319.5C 162.047,318.878 159.547,316.045 159.5,311C 159.703,308.594 160.703,306.594 162.5,305C 166.745,302.961 170.912,300.794 175,298.5C 175.667,269.833 175.667,241.167 175,212.5C 170.171,210.086 165.504,207.42 161,204.5C 158.325,199.011 159.492,194.678 164.5,191.5 Z"/></g>
<g><path style="opacity:1" fill="#27292a" d="M 268.5,191.5 C 279.167,192.003 281.833,196.836 276.5,206C 267.42,209.215 263.253,206.048 264,196.5C 265.025,194.313 266.525,192.646 268.5,191.5 Z"/></g>
<g><path style="opacity:1" fill="#6ebed5" d="M 399.5,199.5 C 412.833,199.5 426.167,199.5 439.5,199.5C 439.5,236.833 439.5,274.167 439.5,311.5C 426.167,311.5 412.833,311.5 399.5,311.5C 399.5,274.167 399.5,236.833 399.5,199.5 Z"/></g>
<g><path style="opacity:1" fill="#6cbbd2" d="M 103.5,199.5 C 116.018,199.505 120.851,205.505 118,217.5C 110.966,225.413 103.966,225.413 97,217.5C 93.8203,209.532 95.987,203.532 103.5,199.5 Z"/></g>
<g><path style="opacity:1" fill="#272626" d="M 101.5,271.5 C 124.672,271.171 135.839,282.504 135,305.5C 129.608,321.615 118.441,328.782 101.5,327C 85.3998,321.645 78.2331,310.478 80,293.5C 83.3501,282.318 90.5167,274.984 101.5,271.5 Z"/></g>
<g><path style="opacity:1" fill="#6cbbd2" d="M 103.5,287.5 C 116.018,287.505 120.851,293.505 118,305.5C 110.966,313.413 103.966,313.413 97,305.5C 93.8203,297.532 95.987,291.532 103.5,287.5 Z"/></g>
<g><path style="opacity:1" fill="#6dbdd5" d="M 103.5,367.5 C 130.167,367.5 156.833,367.5 183.5,367.5C 190.501,401.165 177.168,414.499 143.5,407.5C 109.832,414.499 96.4986,401.165 103.5,367.5 Z"/></g>
<g><path style="opacity:1" fill="#7f7f7f" d="M 455.5,375.5 C 467.909,375.061 480.242,375.561 492.5,377C 493.701,377.903 494.535,379.069 495,380.5C 495.667,395.5 495.667,410.5 495,425.5C 494.727,427.329 493.893,428.829 492.5,430C 480.242,431.439 467.909,431.939 455.5,431.5C 455.5,412.833 455.5,394.167 455.5,375.5 Z"/></g>
<g><path style="opacity:1" fill="#eebb55" d="M 397.5,376.5 C 399.491,402.479 400.158,428.812 399.5,455.5C 391.5,455.5 383.5,455.5 375.5,455.5C 375.333,437.164 375.5,418.83 376,400.5C 379.191,388.815 386.357,380.815 397.5,376.5 Z"/></g>
</svg>
